<svg width="340" height="175" viewBox="0 0 340 175" fill="none" xmlns="http://www.w3.org/2000/svg">
<path d="M191.727 2C191.727 2 192.248 8.47723 194.885 11.1148C197.523 13.7525 204 14.2727 204 14.2727C204 14.2727 197.523 14.7931 194.885 17.4306C192.248 20.0682 191.727 26.5455 191.727 26.5455C191.727 26.5455 191.207 20.0682 188.569 17.4306C185.932 14.7931 179.455 14.2727 179.455 14.2727C179.455 14.2727 185.932 13.7525 188.569 11.1148C191.207 8.47723 191.727 2 191.727 2Z" fill="#4730C6"/>
<path d="M180.818 15.6364C180.818 15.6364 181.107 19.2348 182.573 20.7001C184.038 22.1655 187.636 22.4545 187.636 22.4545C187.636 22.4545 184.038 22.7436 182.573 24.2089C181.107 25.6742 180.818 29.2727 180.818 29.2727C180.818 29.2727 180.529 25.6742 179.064 24.2089C177.598 22.7436 174 22.4545 174 22.4545C174 22.4545 177.598 22.1655 179.064 20.7001C180.529 19.2348 180.818 15.6364 180.818 15.6364Z" fill="#4730C6"/>
<path d="M187.5 22.9999C187.5 22.9999 187.644 24.7991 188.377 25.5318C189.11 26.2645 190.909 26.409 190.909 26.409C190.909 26.409 189.11 26.5535 188.377 27.2862C187.644 28.0188 187.5 29.8181 187.5 29.8181C187.5 29.8181 187.355 28.0188 186.623 27.2862C185.89 26.5535 184.091 26.409 184.091 26.409C184.091 26.409 185.89 26.2645 186.623 25.5318C187.355 24.7991 187.5 22.9999 187.5 22.9999Z" fill="#4730C6"/>
<path d="M0.0683594 70V0.181824H27.6138C32.8865 0.181824 37.3865 1.12501 41.1138 3.01137C44.8638 4.87501 47.7161 7.52273 49.6706 10.9546C51.6479 14.3636 52.6365 18.375 52.6365 22.9886C52.6365 27.625 51.6365 31.6136 49.6365 34.9546C47.6365 38.2727 44.7388 40.8182 40.9434 42.5909C37.1706 44.3636 32.6025 45.25 27.2388 45.25H8.79563V33.3864H24.8525C27.6706 33.3864 30.0115 33 31.8752 32.2273C33.7388 31.4546 35.1252 30.2955 36.0343 28.75C36.9661 27.2046 37.432 25.2841 37.432 22.9886C37.432 20.6705 36.9661 18.7159 36.0343 17.125C35.1252 15.5341 33.7275 14.3295 31.8411 13.5114C29.9775 12.6705 27.6252 12.25 24.7843 12.25H14.8297V70H0.0683594ZM37.7729 38.2273L55.1252 70H38.8297L21.8525 38.2273H37.7729Z" fill="#4730C6"/>
<path d="M85.611 71.0227C80.3155 71.0227 75.736 69.8977 71.8723 67.6477C68.0314 65.375 65.0655 62.2159 62.9746 58.1705C60.8837 54.1023 59.8382 49.3864 59.8382 44.0227C59.8382 38.6136 60.8837 33.8864 62.9746 29.8409C65.0655 25.7727 68.0314 22.6136 71.8723 20.3636C75.736 18.0909 80.3155 16.9546 85.611 16.9546C90.9064 16.9546 95.4746 18.0909 99.3155 20.3636C103.179 22.6136 106.156 25.7727 108.247 29.8409C110.338 33.8864 111.384 38.6136 111.384 44.0227C111.384 49.3864 110.338 54.1023 108.247 58.1705C106.156 62.2159 103.179 65.375 99.3155 67.6477C95.4746 69.8977 90.9064 71.0227 85.611 71.0227ZM85.6792 59.7727C88.0882 59.7727 90.0996 59.0909 91.7132 57.7273C93.3269 56.3409 94.5428 54.4546 95.361 52.0682C96.2019 49.6818 96.6223 46.9659 96.6223 43.9205C96.6223 40.875 96.2019 38.1591 95.361 35.7727C94.5428 33.3864 93.3269 31.5 91.7132 30.1136C90.0996 28.7273 88.0882 28.0341 85.6792 28.0341C83.2473 28.0341 81.2019 28.7273 79.5428 30.1136C77.9064 31.5 76.6678 33.3864 75.8269 35.7727C75.0087 38.1591 74.5996 40.875 74.5996 43.9205C74.5996 46.9659 75.0087 49.6818 75.8269 52.0682C76.6678 54.4546 77.9064 56.3409 79.5428 57.7273C81.2019 59.0909 83.2473 59.7727 85.6792 59.7727Z" fill="#4730C6"/>
<path d="M140.122 70.8523C136.145 70.8523 132.543 69.8296 129.316 67.7841C126.111 65.7159 123.566 62.6818 121.679 58.6818C119.816 54.6591 118.884 49.7273 118.884 43.8864C118.884 37.8864 119.85 32.8977 121.781 28.9205C123.713 24.9205 126.281 21.9318 129.486 19.9546C132.713 17.9546 136.247 16.9546 140.088 16.9546C143.02 16.9546 145.463 17.4546 147.418 18.4546C149.395 19.4318 150.986 20.6591 152.191 22.1364C153.418 23.5909 154.35 25.0227 154.986 26.4318H155.429V0.181824H169.918V70H155.6V61.6136H154.986C154.304 63.0682 153.338 64.5114 152.088 65.9432C150.861 67.3523 149.259 68.5227 147.281 69.4546C145.327 70.3864 142.941 70.8523 140.122 70.8523ZM144.725 59.2955C147.066 59.2955 149.043 58.6591 150.656 57.3864C152.293 56.0909 153.543 54.2841 154.406 51.9659C155.293 49.6477 155.736 46.9318 155.736 43.8182C155.736 40.7046 155.304 38 154.441 35.7046C153.577 33.4091 152.327 31.6364 150.691 30.3864C149.054 29.1364 147.066 28.5114 144.725 28.5114C142.338 28.5114 140.327 29.1591 138.691 30.4546C137.054 31.75 135.816 33.5455 134.975 35.8409C134.134 38.1364 133.713 40.7955 133.713 43.8182C133.713 46.8636 134.134 49.5568 134.975 51.8977C135.838 54.2159 137.077 56.0341 138.691 57.3523C140.327 58.6477 142.338 59.2955 144.725 59.2955Z" fill="#4730C6"/>
<path d="M181.827 70V0.181824H196.35V70H181.827Z" fill="#4730C6"/>
<text x="0" y="160" font-family="'Instrument Serif', Georgia, serif" font-size="90" font-style="italic" fill="#4730C6">Sites</text>
</svg>
