<svg width="400" height="400" viewBox="0 0 400 400" fill="none" xmlns="http://www.w3.org/2000/svg">
<rect width="400" height="400" fill="#4730C6"/>
<path d="M331.247 148C331.247 148 332.046 158.033 336.1 162.119C340.154 166.205 350.11 167.01 350.11 167.01C350.11 167.01 340.154 167.816 336.1 171.902C332.046 175.987 331.247 186.021 331.247 186.021C331.247 186.021 330.447 175.987 326.393 171.902C322.339 167.816 312.384 167.01 312.384 167.01C312.384 167.01 322.339 166.205 326.393 162.119C330.447 158.033 331.247 148 331.247 148Z" fill="white"/>
<path d="M314.479 169.123C314.479 169.123 314.924 174.697 317.176 176.967C319.428 179.236 324.959 179.684 324.959 179.684C324.959 179.684 319.428 180.132 317.176 182.402C314.924 184.671 314.479 190.245 314.479 190.245C314.479 190.245 314.035 184.671 311.783 182.402C309.531 180.132 304 179.684 304 179.684C304 179.684 309.531 179.236 311.783 176.967C314.035 174.697 314.479 169.123 314.479 169.123Z" fill="white"/>
<path d="M324.749 180.528C324.749 180.528 324.971 183.315 326.097 184.45C327.224 185.585 329.989 185.809 329.989 185.809C329.989 185.809 327.224 186.033 326.097 187.168C324.971 188.303 324.749 191.09 324.749 191.09C324.749 191.09 324.527 188.303 323.401 187.168C322.275 186.033 319.51 185.809 319.51 185.809C319.51 185.809 322.275 185.585 323.401 184.45C324.527 183.315 324.749 180.528 324.749 180.528Z" fill="white"/>
<path d="M52 249.513V148H92.05C99.7164 148 106.259 149.371 111.679 152.114C117.131 154.824 121.278 158.673 124.12 163.663C126.995 168.62 128.432 174.452 128.432 181.16C128.432 187.901 126.978 193.701 124.07 198.558C121.162 203.383 116.949 207.084 111.431 209.661C105.945 212.239 99.3033 213.527 91.5048 213.527H64.6891V196.278H88.0351C92.1327 196.278 95.5363 195.716 98.2459 194.593C100.956 193.469 102.971 191.784 104.293 189.537C105.648 187.29 106.325 184.498 106.325 181.16C106.325 177.79 105.648 174.948 104.293 172.635C102.971 170.322 100.939 168.57 98.1963 167.381C95.4867 166.158 92.0666 165.547 87.936 165.547H73.4625V249.513H52ZM106.821 203.317L132.051 249.513H108.358L83.6732 203.317H106.821Z" fill="white"/>
<path d="M176.376 251C168.676 251 162.018 249.364 156.4 246.093C150.816 242.788 146.503 238.195 143.463 232.313C140.423 226.398 138.903 219.542 138.903 211.743C138.903 203.878 140.423 197.005 143.463 191.123C146.503 185.208 150.816 180.615 156.4 177.344C162.018 174.039 168.676 172.387 176.376 172.387C184.075 172.387 190.717 174.039 196.302 177.344C201.919 180.615 206.248 185.208 209.288 191.123C212.328 197.005 213.848 203.878 213.848 211.743C213.848 219.542 212.328 226.398 209.288 232.313C206.248 238.195 201.919 242.788 196.302 246.093C190.717 249.364 184.075 251 176.376 251ZM176.475 234.643C179.978 234.643 182.902 233.652 185.248 231.669C187.594 229.653 189.362 226.91 190.552 223.441C191.775 219.971 192.386 216.022 192.386 211.594C192.386 207.166 191.775 203.218 190.552 199.748C189.362 196.278 187.594 193.535 185.248 191.52C182.902 189.504 179.978 188.496 176.475 188.496C172.939 188.496 169.965 189.504 167.553 191.52C165.174 193.535 163.373 196.278 162.15 199.748C160.96 203.218 160.366 207.166 160.366 211.594C160.366 216.022 160.96 219.971 162.15 223.441C163.373 226.91 165.174 229.653 167.553 231.669C169.965 233.652 172.939 234.643 176.475 234.643Z" fill="white"/>
<path d="M255.633 250.752C249.85 250.752 244.613 249.265 239.92 246.291C235.261 243.284 231.56 238.873 228.817 233.057C226.108 227.208 224.753 220.037 224.753 211.545C224.753 202.821 226.157 195.568 228.966 189.785C231.775 183.969 235.509 179.624 240.168 176.749C244.861 173.841 249.999 172.387 255.584 172.387C259.846 172.387 263.399 173.114 266.24 174.568C269.115 175.989 271.428 177.773 273.18 179.921C274.964 182.036 276.319 184.118 277.244 186.167H277.889V148H298.955V249.513H278.137V237.32H277.244C276.253 239.434 274.849 241.533 273.031 243.615C271.247 245.663 268.917 247.365 266.042 248.72C263.2 250.075 259.731 250.752 255.633 250.752ZM262.325 233.949C265.728 233.949 268.603 233.024 270.949 231.173C273.329 229.29 275.146 226.663 276.402 223.292C277.69 219.922 278.335 215.973 278.335 211.446C278.335 206.919 277.707 202.986 276.451 199.649C275.196 196.311 273.378 193.734 270.999 191.916C268.62 190.099 265.728 189.19 262.325 189.19C258.855 189.19 255.931 190.132 253.551 192.015C251.172 193.899 249.371 196.509 248.149 199.847C246.926 203.184 246.315 207.051 246.315 211.446C246.315 215.874 246.926 219.789 248.149 223.193C249.404 226.564 251.205 229.207 253.551 231.124C255.931 233.007 258.855 233.949 262.325 233.949Z" fill="white"/>
<path d="M316.27 249.513V203.317H337.385V249.513H316.27Z" fill="white"/>
</svg>
